<mxfile host="app.diagrams.net" agent="Mozilla/5.0 (X11; Linux x86_64; rv:109.0) Gecko/20100101 Firefox/115.0" version="26.0.10">
  <diagram name="Page-1" id="SotT7PKfqAtj6fm-6zKW">
    <mxGraphModel dx="1492" dy="391" grid="1" gridSize="10" guides="1" tooltips="1" connect="1" arrows="1" fold="1" page="1" pageScale="1" pageWidth="827" pageHeight="1169" math="0" shadow="0">
      <root>
        <mxCell id="0" />
        <mxCell id="1" parent="0" />
        <mxCell id="Cbqt6V5ET0-gixzIFbC0-1" value="Horizontal Tree Layout" style="swimlane;startSize=20;horizontal=0;childLayout=treeLayout;horizontalTree=1;sortEdges=1;resizable=0;containerType=tree;fontSize=12;" parent="1" vertex="1">
          <mxGeometry x="-60" y="220" width="700" height="1131" as="geometry" />
        </mxCell>
        <mxCell id="Cbqt6V5ET0-gixzIFbC0-2" value="Projet de migration technique d’une Base de&lt;br&gt;Données" style="whiteSpace=wrap;html=1;" parent="Cbqt6V5ET0-gixzIFbC0-1" vertex="1">
          <mxGeometry x="40" y="538.7500000000001" width="110" height="70" as="geometry" />
        </mxCell>
        <mxCell id="Cbqt6V5ET0-gixzIFbC0-3" value="Lot 1 : Préparation" style="whiteSpace=wrap;html=1;" parent="Cbqt6V5ET0-gixzIFbC0-1" vertex="1">
          <mxGeometry x="200" y="160" width="110" height="40" as="geometry" />
        </mxCell>
        <mxCell id="Cbqt6V5ET0-gixzIFbC0-4" value="" style="edgeStyle=elbowEdgeStyle;elbow=horizontal;html=1;rounded=1;curved=0;sourcePerimeterSpacing=0;targetPerimeterSpacing=0;startSize=6;endSize=6;" parent="Cbqt6V5ET0-gixzIFbC0-1" source="Cbqt6V5ET0-gixzIFbC0-2" target="Cbqt6V5ET0-gixzIFbC0-3" edge="1">
          <mxGeometry relative="1" as="geometry" />
        </mxCell>
        <mxCell id="Cbqt6V5ET0-gixzIFbC0-5" value="Lot 2 : Réalisation" style="whiteSpace=wrap;html=1;" parent="Cbqt6V5ET0-gixzIFbC0-1" vertex="1">
          <mxGeometry x="200" y="563.7500000000001" width="100" height="40" as="geometry" />
        </mxCell>
        <mxCell id="Cbqt6V5ET0-gixzIFbC0-6" value="" style="edgeStyle=elbowEdgeStyle;elbow=horizontal;html=1;rounded=1;curved=0;sourcePerimeterSpacing=0;targetPerimeterSpacing=0;startSize=6;endSize=6;" parent="Cbqt6V5ET0-gixzIFbC0-1" source="Cbqt6V5ET0-gixzIFbC0-2" target="Cbqt6V5ET0-gixzIFbC0-5" edge="1">
          <mxGeometry relative="1" as="geometry" />
        </mxCell>
        <mxCell id="Cbqt6V5ET0-gixzIFbC0-7" value="" style="edgeStyle=elbowEdgeStyle;elbow=horizontal;html=1;rounded=1;curved=0;sourcePerimeterSpacing=0;targetPerimeterSpacing=0;startSize=6;endSize=6;" parent="Cbqt6V5ET0-gixzIFbC0-1" source="Cbqt6V5ET0-gixzIFbC0-3" target="Cbqt6V5ET0-gixzIFbC0-8" edge="1">
          <mxGeometry relative="1" as="geometry">
            <mxPoint x="240" y="-4036.4150000000004" as="sourcePoint" />
          </mxGeometry>
        </mxCell>
        <mxCell id="Cbqt6V5ET0-gixzIFbC0-8" value="Lot 1.1 : Conception" style="whiteSpace=wrap;html=1;" parent="Cbqt6V5ET0-gixzIFbC0-1" vertex="1">
          <mxGeometry x="360" y="60" width="110" height="40" as="geometry" />
        </mxCell>
        <mxCell id="Cbqt6V5ET0-gixzIFbC0-11" value="" style="edgeStyle=elbowEdgeStyle;elbow=horizontal;html=1;rounded=1;curved=0;sourcePerimeterSpacing=0;targetPerimeterSpacing=0;startSize=6;endSize=6;" parent="Cbqt6V5ET0-gixzIFbC0-1" source="Cbqt6V5ET0-gixzIFbC0-2" target="Cbqt6V5ET0-gixzIFbC0-12" edge="1">
          <mxGeometry relative="1" as="geometry">
            <mxPoint x="240" y="-3956.4150000000004" as="sourcePoint" />
          </mxGeometry>
        </mxCell>
        <mxCell id="Cbqt6V5ET0-gixzIFbC0-12" value="Lot 3 : Recette" style="whiteSpace=wrap;html=1;" parent="Cbqt6V5ET0-gixzIFbC0-1" vertex="1">
          <mxGeometry x="200" y="947.5000000000002" width="100" height="40" as="geometry" />
        </mxCell>
        <mxCell id="Cbqt6V5ET0-gixzIFbC0-13" value="" style="edgeStyle=elbowEdgeStyle;elbow=horizontal;html=1;rounded=1;curved=0;sourcePerimeterSpacing=0;targetPerimeterSpacing=0;startSize=6;endSize=6;" parent="Cbqt6V5ET0-gixzIFbC0-1" source="Cbqt6V5ET0-gixzIFbC0-8" target="Cbqt6V5ET0-gixzIFbC0-14" edge="1">
          <mxGeometry relative="1" as="geometry">
            <mxPoint x="400" y="-3971.4150000000004" as="sourcePoint" />
          </mxGeometry>
        </mxCell>
        <mxCell id="Cbqt6V5ET0-gixzIFbC0-14" value="Lot 1.1.1 : Schéma BdD" style="whiteSpace=wrap;html=1;" parent="Cbqt6V5ET0-gixzIFbC0-1" vertex="1">
          <mxGeometry x="520" y="20" width="110" height="40" as="geometry" />
        </mxCell>
        <mxCell id="Cbqt6V5ET0-gixzIFbC0-19" value="" style="edgeStyle=elbowEdgeStyle;elbow=horizontal;html=1;rounded=1;curved=0;sourcePerimeterSpacing=0;targetPerimeterSpacing=0;startSize=6;endSize=6;" parent="Cbqt6V5ET0-gixzIFbC0-1" source="Cbqt6V5ET0-gixzIFbC0-3" target="Cbqt6V5ET0-gixzIFbC0-20" edge="1">
          <mxGeometry relative="1" as="geometry">
            <mxPoint x="240" y="-3665.4150000000004" as="sourcePoint" />
          </mxGeometry>
        </mxCell>
        <mxCell id="Cbqt6V5ET0-gixzIFbC0-20" value="Lot 1.2 : Codage scripts" style="whiteSpace=wrap;html=1;" parent="Cbqt6V5ET0-gixzIFbC0-1" vertex="1">
          <mxGeometry x="360" y="260" width="110" height="40" as="geometry" />
        </mxCell>
        <mxCell id="Cbqt6V5ET0-gixzIFbC0-21" value="" style="edgeStyle=elbowEdgeStyle;elbow=horizontal;html=1;rounded=1;curved=0;sourcePerimeterSpacing=0;targetPerimeterSpacing=0;startSize=6;endSize=6;" parent="Cbqt6V5ET0-gixzIFbC0-1" source="Cbqt6V5ET0-gixzIFbC0-20" target="Cbqt6V5ET0-gixzIFbC0-22" edge="1">
          <mxGeometry relative="1" as="geometry">
            <mxPoint x="400" y="-3598.1350000000007" as="sourcePoint" />
          </mxGeometry>
        </mxCell>
        <mxCell id="Cbqt6V5ET0-gixzIFbC0-22" value="Lot 1.2.1 : Script création schéma" style="whiteSpace=wrap;html=1;" parent="Cbqt6V5ET0-gixzIFbC0-1" vertex="1">
          <mxGeometry x="520" y="180" width="120" height="40" as="geometry" />
        </mxCell>
        <mxCell id="Cbqt6V5ET0-gixzIFbC0-23" value="" style="edgeStyle=elbowEdgeStyle;elbow=horizontal;html=1;rounded=1;curved=0;sourcePerimeterSpacing=0;targetPerimeterSpacing=0;startSize=6;endSize=6;" parent="Cbqt6V5ET0-gixzIFbC0-1" source="Cbqt6V5ET0-gixzIFbC0-20" target="Cbqt6V5ET0-gixzIFbC0-24" edge="1">
          <mxGeometry relative="1" as="geometry">
            <mxPoint x="400" y="-3598.1350000000007" as="sourcePoint" />
          </mxGeometry>
        </mxCell>
        <mxCell id="Cbqt6V5ET0-gixzIFbC0-24" value="Lot 1.2.2 : Script export données " style="whiteSpace=wrap;html=1;" parent="Cbqt6V5ET0-gixzIFbC0-1" vertex="1">
          <mxGeometry x="520" y="260" width="150" height="40" as="geometry" />
        </mxCell>
        <mxCell id="Cbqt6V5ET0-gixzIFbC0-25" value="" style="edgeStyle=elbowEdgeStyle;elbow=horizontal;html=1;rounded=1;curved=0;sourcePerimeterSpacing=0;targetPerimeterSpacing=0;startSize=6;endSize=6;" parent="Cbqt6V5ET0-gixzIFbC0-1" source="Cbqt6V5ET0-gixzIFbC0-20" target="Cbqt6V5ET0-gixzIFbC0-26" edge="1">
          <mxGeometry relative="1" as="geometry">
            <mxPoint x="400" y="-3411.6350000000007" as="sourcePoint" />
          </mxGeometry>
        </mxCell>
        <mxCell id="Cbqt6V5ET0-gixzIFbC0-26" value="Lot 1.2.3 : Script peuplement" style="whiteSpace=wrap;html=1;" parent="Cbqt6V5ET0-gixzIFbC0-1" vertex="1">
          <mxGeometry x="520" y="340" width="160" height="40" as="geometry" />
        </mxCell>
        <mxCell id="Cbqt6V5ET0-gixzIFbC0-27" value="" style="edgeStyle=elbowEdgeStyle;elbow=horizontal;html=1;rounded=1;curved=0;sourcePerimeterSpacing=0;targetPerimeterSpacing=0;startSize=6;endSize=6;" parent="Cbqt6V5ET0-gixzIFbC0-1" source="Cbqt6V5ET0-gixzIFbC0-5" target="Cbqt6V5ET0-gixzIFbC0-28" edge="1">
          <mxGeometry relative="1" as="geometry">
            <mxPoint x="240" y="-3088.5550000000007" as="sourcePoint" />
          </mxGeometry>
        </mxCell>
        <mxCell id="Cbqt6V5ET0-gixzIFbC0-28" value="Lot 2.1 : Installation du serveur" style="whiteSpace=wrap;html=1;" parent="Cbqt6V5ET0-gixzIFbC0-1" vertex="1">
          <mxGeometry x="350" y="463.0000000000001" width="100" height="40" as="geometry" />
        </mxCell>
        <mxCell id="Cbqt6V5ET0-gixzIFbC0-29" value="" style="edgeStyle=elbowEdgeStyle;elbow=horizontal;html=1;rounded=1;curved=0;sourcePerimeterSpacing=0;targetPerimeterSpacing=0;startSize=6;endSize=6;" parent="Cbqt6V5ET0-gixzIFbC0-1" source="Cbqt6V5ET0-gixzIFbC0-5" target="Cbqt6V5ET0-gixzIFbC0-30" edge="1">
          <mxGeometry relative="1" as="geometry">
            <mxPoint x="240" y="-2835.1150000000007" as="sourcePoint" />
          </mxGeometry>
        </mxCell>
        <mxCell id="Cbqt6V5ET0-gixzIFbC0-30" value="Lot 2.2 : Execution des scripts" style="whiteSpace=wrap;html=1;" parent="Cbqt6V5ET0-gixzIFbC0-1" vertex="1">
          <mxGeometry x="350" y="666.0000000000002" width="120" height="40" as="geometry" />
        </mxCell>
        <mxCell id="Cbqt6V5ET0-gixzIFbC0-31" value="" style="edgeStyle=elbowEdgeStyle;elbow=horizontal;html=1;rounded=1;curved=0;sourcePerimeterSpacing=0;targetPerimeterSpacing=0;startSize=6;endSize=6;" parent="Cbqt6V5ET0-gixzIFbC0-1" source="Cbqt6V5ET0-gixzIFbC0-12" target="Cbqt6V5ET0-gixzIFbC0-32" edge="1">
          <mxGeometry relative="1" as="geometry">
            <mxPoint x="240" y="-2543.665000000001" as="sourcePoint" />
          </mxGeometry>
        </mxCell>
        <mxCell id="Cbqt6V5ET0-gixzIFbC0-32" value="Lot 3.1 : Données Clients" style="whiteSpace=wrap;html=1;" parent="Cbqt6V5ET0-gixzIFbC0-1" vertex="1">
          <mxGeometry x="350" y="866.0000000000002" width="110" height="40" as="geometry" />
        </mxCell>
        <mxCell id="Cbqt6V5ET0-gixzIFbC0-35" value="" style="edgeStyle=elbowEdgeStyle;elbow=horizontal;html=1;rounded=1;curved=0;sourcePerimeterSpacing=0;targetPerimeterSpacing=0;startSize=6;endSize=6;" parent="Cbqt6V5ET0-gixzIFbC0-1" source="Cbqt6V5ET0-gixzIFbC0-32" target="Cbqt6V5ET0-gixzIFbC0-36" edge="1">
          <mxGeometry relative="1" as="geometry">
            <mxPoint x="390" y="-2346.7150000000006" as="sourcePoint" />
          </mxGeometry>
        </mxCell>
        <mxCell id="Cbqt6V5ET0-gixzIFbC0-36" value="Lot 3.1.1 : Structure des tables" style="whiteSpace=wrap;html=1;" parent="Cbqt6V5ET0-gixzIFbC0-1" vertex="1">
          <mxGeometry x="510" y="826.0000000000002" width="110" height="40" as="geometry" />
        </mxCell>
        <mxCell id="Cbqt6V5ET0-gixzIFbC0-37" value="" style="edgeStyle=elbowEdgeStyle;elbow=horizontal;html=1;rounded=1;curved=0;sourcePerimeterSpacing=0;targetPerimeterSpacing=0;startSize=6;endSize=6;" parent="Cbqt6V5ET0-gixzIFbC0-1" source="Cbqt6V5ET0-gixzIFbC0-32" target="Cbqt6V5ET0-gixzIFbC0-38" edge="1">
          <mxGeometry relative="1" as="geometry">
            <mxPoint x="390" y="-2009.9150000000004" as="sourcePoint" />
          </mxGeometry>
        </mxCell>
        <mxCell id="Cbqt6V5ET0-gixzIFbC0-38" value="Lot 3.1.2 : Intégrité des données" style="whiteSpace=wrap;html=1;" parent="Cbqt6V5ET0-gixzIFbC0-1" vertex="1">
          <mxGeometry x="510" y="906.0000000000002" width="110" height="40" as="geometry" />
        </mxCell>
        <mxCell id="k_g2q-K09gLS0p32QqMD-1" value="" style="edgeStyle=elbowEdgeStyle;elbow=horizontal;html=1;rounded=1;curved=0;sourcePerimeterSpacing=0;targetPerimeterSpacing=0;startSize=6;endSize=6;" parent="Cbqt6V5ET0-gixzIFbC0-1" source="Cbqt6V5ET0-gixzIFbC0-8" target="k_g2q-K09gLS0p32QqMD-2" edge="1">
          <mxGeometry relative="1" as="geometry">
            <mxPoint x="250" y="-2135.4150000000004" as="sourcePoint" />
          </mxGeometry>
        </mxCell>
        <mxCell id="k_g2q-K09gLS0p32QqMD-2" value="Lot 1.1.2 : Statégie de Test" style="whiteSpace=wrap;html=1;" parent="Cbqt6V5ET0-gixzIFbC0-1" vertex="1">
          <mxGeometry x="520" y="100" width="110" height="40" as="geometry" />
        </mxCell>
        <mxCell id="k_g2q-K09gLS0p32QqMD-5" value="" style="edgeStyle=elbowEdgeStyle;elbow=horizontal;html=1;rounded=1;curved=0;sourcePerimeterSpacing=0;targetPerimeterSpacing=0;startSize=6;endSize=6;" parent="Cbqt6V5ET0-gixzIFbC0-1" source="Cbqt6V5ET0-gixzIFbC0-28" target="k_g2q-K09gLS0p32QqMD-6" edge="1">
          <mxGeometry relative="1" as="geometry">
            <mxPoint x="240" y="-1464.3400000000008" as="sourcePoint" />
          </mxGeometry>
        </mxCell>
        <mxCell id="k_g2q-K09gLS0p32QqMD-6" value="Lot 2.1.1 : Configuration Linux" style="whiteSpace=wrap;html=1;" parent="Cbqt6V5ET0-gixzIFbC0-1" vertex="1">
          <mxGeometry x="500" y="421.50000000000006" width="100" height="40" as="geometry" />
        </mxCell>
        <mxCell id="k_g2q-K09gLS0p32QqMD-7" value="" style="edgeStyle=elbowEdgeStyle;elbow=horizontal;html=1;rounded=1;curved=0;sourcePerimeterSpacing=0;targetPerimeterSpacing=0;startSize=6;endSize=6;" parent="Cbqt6V5ET0-gixzIFbC0-1" source="Cbqt6V5ET0-gixzIFbC0-28" target="k_g2q-K09gLS0p32QqMD-8" edge="1">
          <mxGeometry relative="1" as="geometry">
            <mxPoint x="240" y="-1053.8650000000007" as="sourcePoint" />
          </mxGeometry>
        </mxCell>
        <mxCell id="k_g2q-K09gLS0p32QqMD-8" value="Lot 2.1.2 : Installation PostGreSQL" style="whiteSpace=wrap;html=1;" parent="Cbqt6V5ET0-gixzIFbC0-1" vertex="1">
          <mxGeometry x="500" y="504.50000000000017" width="100" height="40" as="geometry" />
        </mxCell>
        <mxCell id="k_g2q-K09gLS0p32QqMD-9" value="" style="edgeStyle=elbowEdgeStyle;elbow=horizontal;html=1;rounded=1;curved=0;sourcePerimeterSpacing=0;targetPerimeterSpacing=0;startSize=6;endSize=6;" parent="Cbqt6V5ET0-gixzIFbC0-1" source="Cbqt6V5ET0-gixzIFbC0-30" target="k_g2q-K09gLS0p32QqMD-10" edge="1">
          <mxGeometry relative="1" as="geometry">
            <mxPoint x="240" y="-605.5650000000004" as="sourcePoint" />
          </mxGeometry>
        </mxCell>
        <mxCell id="k_g2q-K09gLS0p32QqMD-10" value="Lot 2.2.1 : Script création de schéma" style="whiteSpace=wrap;html=1;" parent="Cbqt6V5ET0-gixzIFbC0-1" vertex="1">
          <mxGeometry x="520" y="586.0000000000002" width="120" height="40" as="geometry" />
        </mxCell>
        <mxCell id="k_g2q-K09gLS0p32QqMD-11" value="" style="edgeStyle=elbowEdgeStyle;elbow=horizontal;html=1;rounded=1;curved=0;sourcePerimeterSpacing=0;targetPerimeterSpacing=0;startSize=6;endSize=6;" parent="Cbqt6V5ET0-gixzIFbC0-1" source="Cbqt6V5ET0-gixzIFbC0-12" target="k_g2q-K09gLS0p32QqMD-12" edge="1">
          <mxGeometry relative="1" as="geometry">
            <mxPoint x="90" y="-666.0650000000004" as="sourcePoint" />
          </mxGeometry>
        </mxCell>
        <mxCell id="k_g2q-K09gLS0p32QqMD-12" value="Lot 3.2 : Données Facturation" style="whiteSpace=wrap;html=1;" parent="Cbqt6V5ET0-gixzIFbC0-1" vertex="1">
          <mxGeometry x="350" y="1029.0000000000002" width="100" height="40" as="geometry" />
        </mxCell>
        <mxCell id="k_g2q-K09gLS0p32QqMD-13" value="" style="edgeStyle=elbowEdgeStyle;elbow=horizontal;html=1;rounded=1;curved=0;sourcePerimeterSpacing=0;targetPerimeterSpacing=0;startSize=6;endSize=6;" parent="Cbqt6V5ET0-gixzIFbC0-1" source="k_g2q-K09gLS0p32QqMD-12" target="k_g2q-K09gLS0p32QqMD-14" edge="1">
          <mxGeometry relative="1" as="geometry">
            <mxPoint x="240" y="133.51" as="sourcePoint" />
          </mxGeometry>
        </mxCell>
        <mxCell id="k_g2q-K09gLS0p32QqMD-14" value="Lot 3.2.1 : Structure des tables" style="whiteSpace=wrap;html=1;" parent="Cbqt6V5ET0-gixzIFbC0-1" vertex="1">
          <mxGeometry x="500" y="987.5000000000001" width="100" height="40" as="geometry" />
        </mxCell>
        <mxCell id="k_g2q-K09gLS0p32QqMD-15" value="" style="edgeStyle=elbowEdgeStyle;elbow=horizontal;html=1;rounded=1;curved=0;sourcePerimeterSpacing=0;targetPerimeterSpacing=0;startSize=6;endSize=6;" parent="Cbqt6V5ET0-gixzIFbC0-1" source="k_g2q-K09gLS0p32QqMD-12" target="k_g2q-K09gLS0p32QqMD-16" edge="1">
          <mxGeometry relative="1" as="geometry">
            <mxPoint x="240" y="99.24999999999977" as="sourcePoint" />
          </mxGeometry>
        </mxCell>
        <mxCell id="k_g2q-K09gLS0p32QqMD-16" value="Lot 3.2.2 : Intégrité des données" style="whiteSpace=wrap;html=1;" parent="Cbqt6V5ET0-gixzIFbC0-1" vertex="1">
          <mxGeometry x="500" y="1070.5000000000002" width="100" height="40" as="geometry" />
        </mxCell>
        <mxCell id="k_g2q-K09gLS0p32QqMD-17" value="" style="edgeStyle=elbowEdgeStyle;elbow=horizontal;html=1;rounded=1;curved=0;sourcePerimeterSpacing=0;targetPerimeterSpacing=0;startSize=6;endSize=6;" parent="Cbqt6V5ET0-gixzIFbC0-1" source="Cbqt6V5ET0-gixzIFbC0-30" target="k_g2q-K09gLS0p32QqMD-18" edge="1">
          <mxGeometry relative="1" as="geometry">
            <mxPoint x="240" y="-153.50000000000023" as="sourcePoint" />
          </mxGeometry>
        </mxCell>
        <mxCell id="k_g2q-K09gLS0p32QqMD-18" value="Lot 2.2.2 : Script export données " style="whiteSpace=wrap;html=1;" parent="Cbqt6V5ET0-gixzIFbC0-1" vertex="1">
          <mxGeometry x="520" y="666.0000000000002" width="120" height="40" as="geometry" />
        </mxCell>
        <mxCell id="k_g2q-K09gLS0p32QqMD-19" value="" style="edgeStyle=elbowEdgeStyle;elbow=horizontal;html=1;rounded=1;curved=0;sourcePerimeterSpacing=0;targetPerimeterSpacing=0;startSize=6;endSize=6;" parent="Cbqt6V5ET0-gixzIFbC0-1" source="Cbqt6V5ET0-gixzIFbC0-30" target="k_g2q-K09gLS0p32QqMD-20" edge="1">
          <mxGeometry relative="1" as="geometry">
            <mxPoint x="240" y="305.2499999999999" as="sourcePoint" />
          </mxGeometry>
        </mxCell>
        <mxCell id="k_g2q-K09gLS0p32QqMD-20" value="Lot 2.2.3 : Script peuplement" style="whiteSpace=wrap;html=1;" parent="Cbqt6V5ET0-gixzIFbC0-1" vertex="1">
          <mxGeometry x="520" y="746.0000000000002" width="120" height="40" as="geometry" />
        </mxCell>
      </root>
    </mxGraphModel>
  </diagram>
</mxfile>
